<svg width="477" height="352" viewBox="0 0 477 352" fill="none" xmlns="http://www.w3.org/2000/svg">
<path fill-rule="evenodd" clip-rule="evenodd" d="M383.499 0H279.825H262.705C259.084 0 255.816 2.17016 254.411 5.50749L239.691 40.4668C237.193 46.399 241.549 52.9593 247.986 52.9593H349.906C406.051 52.9593 417.7 62.3174 417.7 91.5837C417.7 99.9862 415.303 106.306 410.994 111.054C401.645 99.3027 387.929 91.5837 370.149 91.5837H126.559C79.5726 91.5837 16.2603 130.606 0.730918 226.968C-4.51731 312.318 17.7696 341.055 91.2596 351.904C91.6888 351.967 92.1341 352 92.5679 352H196.242H213.361C216.982 352 220.251 349.83 221.656 346.492L236.376 311.533C238.873 305.601 234.518 299.041 228.081 299.041H126.161C70.016 299.041 58.3665 289.683 58.3665 260.416C58.3665 252.014 60.7634 245.694 65.0727 240.946C74.4215 252.697 88.1376 260.416 105.918 260.416H349.508C396.494 260.416 459.806 221.394 475.336 125.032C480.584 39.6817 458.297 10.945 384.807 0.0962699C384.378 0.0329082 383.933 0 383.499 0ZM151.679 149C136.944 149 125 160.944 125 175.679C125 190.413 136.944 202.357 151.679 202.357H324.493C339.227 202.357 351.172 190.413 351.172 175.679C351.172 160.944 339.227 149 324.493 149H151.679Z" fill="#565ADD"/>
</svg>
