<svg width="2126" height="382" viewBox="0 0 2126 382" fill="none" xmlns="http://www.w3.org/2000/svg">
<path fill-rule="evenodd" clip-rule="evenodd" d="M383.499 0H279.825H262.705C259.084 0 255.816 2.17016 254.411 5.50749L239.691 40.4668C237.193 46.399 241.549 52.9593 247.986 52.9593H349.906C406.051 52.9593 417.7 62.3174 417.7 91.5837C417.7 99.9862 415.303 106.306 410.994 111.054C401.645 99.3027 387.929 91.5837 370.149 91.5837H126.559C79.5726 91.5837 16.2603 130.606 0.730918 226.968C-4.51731 312.318 17.7696 341.055 91.2596 351.904C91.6888 351.967 92.1341 352 92.5679 352H196.242H213.361C216.982 352 220.251 349.83 221.656 346.492L236.376 311.533C238.873 305.601 234.518 299.041 228.081 299.041H126.161C70.016 299.041 58.3665 289.683 58.3665 260.416C58.3665 252.014 60.7634 245.694 65.0727 240.946C74.4215 252.697 88.1376 260.416 105.918 260.416H349.508C396.494 260.416 459.806 221.394 475.336 125.032C480.584 39.6817 458.297 10.945 384.807 0.0962699C384.378 0.0329082 383.933 0 383.499 0ZM151.679 149C136.944 149 125 160.944 125 175.679C125 190.413 136.944 202.357 151.679 202.357H324.493C339.227 202.357 351.172 190.413 351.172 175.679C351.172 160.944 339.227 149 324.493 149H151.679Z" fill="#565ADD"/>
<path d="M680.069 57.32C717.765 57.32 749.137 69.596 774.185 94.148C799.233 118.452 811.757 148.956 811.757 185.66C811.757 222.364 799.233 252.992 774.185 277.544C749.137 301.848 717.765 314 680.069 314H578.513V57.32H680.069ZM678.581 253.736C697.925 253.736 713.921 247.288 726.569 234.392C739.465 221.248 745.913 205.004 745.913 185.66C745.913 166.316 739.465 150.196 726.569 137.3C713.921 124.156 697.925 117.584 678.581 117.584H642.497V253.736H678.581ZM1052.31 255.596H1056.03V314H1039.67C1012.39 314 994.157 305.32 984.981 287.96C969.853 308.296 949.889 318.464 925.089 318.464C899.297 318.464 877.721 309.04 860.361 290.192C843.001 271.096 834.321 247.412 834.321 219.14C834.321 190.868 843.001 167.308 860.361 148.46C877.721 129.364 899.297 119.816 925.089 119.816C946.169 119.816 963.777 127.132 977.913 141.764V124.28H1038.18V241.46C1038.18 250.884 1042.89 255.596 1052.31 255.596ZM907.977 248.528C915.665 256.216 925.337 260.06 936.993 260.06C948.649 260.06 958.321 256.216 966.009 248.528C973.945 240.592 977.913 230.796 977.913 219.14C977.913 207.484 973.945 197.812 966.009 190.124C958.321 182.188 948.649 178.22 936.993 178.22C925.337 178.22 915.665 182.188 907.977 190.124C900.289 197.812 896.445 207.484 896.445 219.14C896.445 230.796 900.289 240.592 907.977 248.528ZM1150.04 318.464C1127.22 318.464 1108.25 312.388 1093.12 300.236C1077.99 287.836 1070.43 272.832 1070.43 255.224H1130.32C1130.32 259.936 1132.18 263.904 1135.9 267.128C1139.87 270.352 1144.7 271.964 1150.41 271.964C1155.12 271.964 1159.21 270.848 1162.68 268.616C1166.4 266.384 1168.26 263.408 1168.26 259.688C1168.26 251.752 1157.72 245.8 1136.64 241.832C1094.48 233.4 1073.4 213.312 1073.4 181.568C1073.4 162.224 1080.6 147.096 1094.98 136.184C1109.36 125.272 1126.97 119.816 1147.8 119.816C1169.88 119.816 1188.23 125.644 1202.86 137.3C1217.74 148.956 1225.18 163.216 1225.18 180.08H1165.29C1165.29 176.112 1163.68 172.888 1160.45 170.408C1157.23 167.68 1153.26 166.316 1148.55 166.316C1144.08 166.316 1140.36 167.432 1137.39 169.664C1134.41 171.648 1132.92 174.252 1132.92 177.476C1132.92 184.42 1143.84 190.372 1165.66 195.332C1207.08 204.756 1227.78 224.348 1227.78 254.108C1227.78 274.196 1220.22 289.944 1205.09 301.352C1190.21 312.76 1171.86 318.464 1150.04 318.464ZM1457.58 255.596H1461.67V314H1444.93C1403.76 314 1383.18 294.284 1383.18 254.852V210.956C1383.18 201.036 1380.33 193.1 1374.62 187.148C1368.92 181.196 1361.35 178.22 1351.93 178.22C1341.51 178.22 1333.08 181.32 1326.63 187.52C1320.43 193.472 1317.33 201.532 1317.33 211.7V314H1257.07V46.16H1317.33V144.368C1331.72 128 1349.95 119.816 1372.02 119.816C1393.35 119.816 1410.58 126.388 1423.73 139.532C1436.87 152.428 1443.44 169.54 1443.44 190.868V241.46C1443.44 250.884 1448.15 255.596 1457.58 255.596ZM1555.84 314C1509.71 314 1486.65 293.416 1486.65 252.248V46.16H1546.91V242.204C1546.91 253.364 1552.99 258.944 1565.14 258.944H1576.67V314H1555.84ZM1630.5 103.82C1620.09 103.82 1611.28 100.348 1604.09 93.404C1597.15 86.46 1593.68 77.78 1593.68 67.364C1593.68 56.7 1597.15 47.896 1604.09 40.952C1611.28 34.008 1620.09 30.536 1630.5 30.536C1641.17 30.536 1649.97 34.008 1656.92 40.952C1663.86 47.896 1667.33 56.7 1667.33 67.364C1667.33 77.78 1663.86 86.46 1656.92 93.404C1649.97 100.348 1641.17 103.82 1630.5 103.82ZM1600.37 314V124.28H1660.64V314H1600.37ZM1902.58 255.596H1906.67V314H1889.93C1848.76 314 1828.18 294.284 1828.18 254.852V210.956C1828.18 201.036 1825.33 193.1 1819.62 187.148C1813.92 181.196 1806.36 178.22 1796.93 178.22C1786.52 178.22 1778.08 181.32 1771.64 187.52C1765.44 193.472 1762.34 201.532 1762.34 211.7V314H1702.07V124.28H1762.34V143.252C1776.47 127.628 1794.7 119.816 1817.02 119.816C1838.35 119.816 1855.58 126.388 1868.73 139.532C1881.87 152.428 1888.44 169.54 1888.44 190.868V241.46C1888.44 250.884 1893.16 255.596 1902.58 255.596ZM2074.58 236.624C2083.26 249.272 2095.41 255.596 2111.03 255.596H2122.94V314H2103.96C2083.38 314 2066.52 310.28 2053.37 302.84C2040.23 295.4 2028.45 283 2018.03 265.64L2006.5 248.528L1990.13 261.92V314H1929.87V46.16H1990.13V188.264L2046.3 124.28H2123.68L2050.4 203.516L2074.58 236.624Z" fill="white"/>
</svg>
